<svg xmlns="http://www.w3.org/2000/svg" xmlns:xlink="http://www.w3.org/1999/xlink" version="1.1" x="0px" y="0px" viewBox="0 0 2219.318 2191.78" enable-background="new 0 0 2219.318 2191.78" xml:space="preserve">
<g id="BACKGROUND">
</g>
<g id="OBJECT">
	<path fill="#CDE9FE" d="M235.516,1973.198c0,11.435,366.248,20.693,817.97,20.693c451.821,0,818.034-9.257,818.034-20.693   c0-11.429-366.213-20.724-818.034-20.724C601.764,1952.474,235.516,1961.768,235.516,1973.198z"/>
	<path fill="#CDE9FE" d="M1792.759,1390.845c-42.325,4.164-83.044-3.663-118.815-20.685   c-20.563-9.784-103.147,59.489-119.796,44.133c-16.63-15.357,32.635-115.294,21.159-135.139   c-15.593-27.009-25.804-57.647-29.047-90.628c-12.194-123.96,78.412-234.284,202.36-246.479   c123.94-12.16,234.271,78.393,246.425,202.326C2007.239,1268.334,1916.665,1378.651,1792.759,1390.845z"/>
	<path fill="#CDE9FE" d="M999.705,543.827c0,61.858,17.103,119.742,46.874,169.19c17.09,28.37-71.506,157.937-46.874,179.86   c24.612,21.91,162.426-63.714,192.819-49.928c41.316,18.741,87.182,29.195,135.471,29.195   c181.316,0,328.304-147.008,328.304-328.318c0-181.303-146.988-328.277-328.304-328.277   C1146.666,215.551,999.705,362.525,999.705,543.827z"/>
	<path fill="#FEBE56" d="M552.268,1973.198h631.34c41.762,0,75.942-34.186,75.942-75.941v-539.899   c0-41.783-21.118-102.836-46.901-135.687l-88.948-113.141c-25.784-32.845-81.067-59.712-122.85-59.712H470.7L552.268,1973.198z"/>
	<path fill="#EFAE52" d="M680.494,1897.256c0,41.755-34.159,75.941-75.928,75.941H336.833c-41.775,0-75.948-34.186-75.948-75.941   v-539.899c0-41.783,20.97-102.944,46.604-135.945l116.608-150.089c25.635-32.967,67.573-32.967,93.194,0l116.621,150.089   c25.614,33.001,46.584,94.162,46.584,135.945V1897.256z"/>
	<g>
		<path fill="#EFEEF4" d="M680.494,1120.026h237.284c10.488,0,18.992-8.504,18.992-18.999c0-10.488-8.504-18.972-18.992-18.972    H680.494c-10.495,0-18.986,8.484-18.986,18.972C661.509,1111.528,669.999,1120.026,680.494,1120.026z"/>
	</g>
	<path fill="#2A94F5" d="M1413.829,1395.402l-35.533,539.892c-1.368,20.854-19.568,37.903-40.449,37.903H1150.41   c-20.888,0-39.074-17.049-40.482-37.903l-35.5-539.892H1413.829z"/>
	<path fill="#0E538D" d="M1451.793,1374.006c0,10.427-8.538,18.999-18.979,18.999h-379.756c-10.427,0-18.979-8.572-18.979-18.999   l0,0c0-10.447,8.552-18.979,18.979-18.979h379.756C1443.255,1355.027,1451.793,1363.566,1451.793,1374.006L1451.793,1374.006z"/>
	<path fill="#2A94F5" d="M1086.263,1355.027l10.501-20.989c4.699-9.35,17.063-16.988,27.503-16.988h237.351   c10.427,0,22.797,7.638,27.469,16.988l10.509,20.989H1086.263z"/>
	<g>
		<path fill="#0E538D" d="M1789.8,1188.77c10.603-44.843,23.137-98.455-12.898-142.668c46.543,4.794,83.207,56.902,83.207,120.562    c0,54.491-26.84,100.54-63.748,115.754C1774.01,1262.653,1779.203,1233.688,1789.8,1188.77z"/>
		<path fill="#0E538D" d="M1733.027,1056.271c41.201,32.669,31.301,75.163,19.805,123.798c-8.193,34.7-17.204,72.901-1.937,104.894    c-40.679-11.707-71.162-60.22-71.162-118.3C1679.733,1117.453,1701.617,1075.216,1733.027,1056.271z"/>
	</g>
	<g>
		<path fill="#0E538D" d="M1191.326,561.256h291.43c12.391,0,22.438-10.048,22.438-22.438c0-12.424-10.048-22.439-22.438-22.439    h-291.43c-12.384,0-22.438,10.015-22.438,22.439C1168.888,551.208,1178.943,561.256,1191.326,561.256z"/>
	</g>
	<g>
		<path fill="#2894F5" d="M1191.326,523.394h291.43c12.391,0,22.438-10.008,22.438-22.452c0-12.377-10.048-22.418-22.438-22.418    h-291.43c-12.384,0-22.438,10.048-22.438,22.418C1168.888,513.386,1178.943,523.394,1191.326,523.394z"/>
	</g>
	<path fill="#FEBE56" d="M1171.555,444.148c0-18.911,14.936-47.22,33.231-62.874c0,0,40.875-35.032,132.235-35.032   c91.379,0,132.288,35.032,132.288,35.032c18.261,15.654,33.204,43.963,33.204,62.874c0,18.863-20.204,34.375-44.897,34.375   h-241.177C1191.759,478.523,1171.555,463.011,1171.555,444.148z"/>
	<path fill="#FEBE56" d="M1171.555,596.105c0,19.188,14.936,47.876,33.231,63.761c0,0,40.875,35.56,132.235,35.56   c91.379,0,132.288-35.56,132.288-35.56c18.261-15.885,33.204-44.573,33.204-63.761c0-19.169-20.204-34.85-44.897-34.85h-241.177   C1191.759,561.256,1171.555,576.937,1171.555,596.105z"/>
</g>
<g id="TEXT">
</g>
</svg>